{
   "accessors" : [
      {
         "bufferView" : 0,
         "byteOffset" : 0,
         "componentType" : 5123,
         "count" : 40092,
         "max" : [ 8177 ],
         "min" : [ 0 ],
         "name" : "buffer-0-group-0-mesh-0-indices",
         "type" : "SCALAR"
      },
      {
         "bufferView" : 2,
         "byteOffset" : 0,
         "componentType" : 5126,
         "count" : 8178,
         "max" : [ 285.5477294921875, 516.8900146484375, 429.0016784667969 ],
         "min" : [ -589.2886962890625, -193.8026275634766, -429.2685241699219 ],
         "name" : "buffer-0-group-0-mesh-0-position",
         "type" : "VEC3"
      },
      {
         "bufferView" : 2,
         "byteOffset" : 98136,
         "componentType" : 5126,
         "count" : 8178,
         "max" : [ 1, 1, 1 ],
         "min" : [ -1, -1, -1 ],
         "name" : "buffer-0-group-0-mesh-0-normal",
         "type" : "VEC3"
      },
      {
         "bufferView" : 1,
         "byteOffset" : 0,
         "componentType" : 5126,
         "count" : 8178,
         "max" : [ 1, 0 ],
         "min" : [ 0, -1 ],
         "name" : "buffer-0-group-0-mesh-0-texcoord",
         "type" : "VEC2"
      },
      {
         "bufferView" : 0,
         "byteOffset" : 80184,
         "componentType" : 5123,
         "count" : 252,
         "max" : [ 132 ],
         "min" : [ 0 ],
         "name" : "buffer-0-group-1-mesh-0-indices",
         "type" : "SCALAR"
      },
      {
         "bufferView" : 2,
         "byteOffset" : 196272,
         "componentType" : 5126,
         "count" : 133,
         "max" : [ 0, 426.0989379882812, 735.5192260742188 ],
         "min" : [ -586.940185546875, 0, -220.198486328125 ],
         "name" : "buffer-0-group-1-mesh-0-position",
         "type" : "VEC3"
      },
      {
         "bufferView" : 2,
         "byteOffset" : 197868,
         "componentType" : 5126,
         "count" : 133,
         "max" : [ 1, 1, 1 ],
         "min" : [ -1, -1, -1 ],
         "name" : "buffer-0-group-1-mesh-0-normal",
         "type" : "VEC3"
      },
      {
         "bufferView" : 1,
         "byteOffset" : 65424,
         "componentType" : 5126,
         "count" : 133,
         "max" : [ 0.875, 0 ],
         "min" : [ 0, -1 ],
         "name" : "buffer-0-group-1-mesh-0-texcoord",
         "type" : "VEC2"
      },
      {
         "bufferView" : 0,
         "byteOffset" : 80688,
         "componentType" : 5123,
         "count" : 288,
         "max" : [ 183 ],
         "min" : [ 0 ],
         "name" : "buffer-0-group-2-mesh-0-indices",
         "type" : "SCALAR"
      },
      {
         "bufferView" : 2,
         "byteOffset" : 199464,
         "componentType" : 5126,
         "count" : 184,
         "max" : [ 591.4937744140625, 273.0499877929688, 738.65087890625 ],
         "min" : [ -589.2886962890625, 0, -410.7808837890625 ],
         "name" : "buffer-0-group-2-mesh-0-position",
         "type" : "VEC3"
      },
      {
         "bufferView" : 2,
         "byteOffset" : 201672,
         "componentType" : 5126,
         "count" : 184,
         "max" : [ 0.8570569753646851, 1, 0 ],
         "min" : [ -1, 0, -1 ],
         "name" : "buffer-0-group-2-mesh-0-normal",
         "type" : "VEC3"
      },
      {
         "bufferView" : 1,
         "byteOffset" : 66488,
         "componentType" : 5126,
         "count" : 184,
         "max" : [ 1, 0 ],
         "min" : [ 0, -1 ],
         "name" : "buffer-0-group-2-mesh-0-texcoord",
         "type" : "VEC2"
      },
      {
         "bufferView" : 0,
         "byteOffset" : 81264,
         "componentType" : 5123,
         "count" : 1710,
         "max" : [ 678 ],
         "min" : [ 0 ],
         "name" : "buffer-0-group-3-mesh-0-indices",
         "type" : "SCALAR"
      },
      {
         "bufferView" : 2,
         "byteOffset" : 203880,
         "componentType" : 5126,
         "count" : 679,
         "max" : [ 591.4937744140625, 516.89013671875, 738.65087890625 ],
         "min" : [ -589.2886962890625, 0, -817.6548461914062 ],
         "name" : "buffer-0-group-3-mesh-0-position",
         "type" : "VEC3"
      },
      {
         "bufferView" : 2,
         "byteOffset" : 212028,
         "componentType" : 5126,
         "count" : 679,
         "max" : [ 1, 1, 1 ],
         "min" : [ -1, -1, -1 ],
         "name" : "buffer-0-group-3-mesh-0-normal",
         "type" : "VEC3"
      },
      {
         "bufferView" : 1,
         "byteOffset" : 67960,
         "componentType" : 5126,
         "count" : 679,
         "max" : [ 0.9909980297088623, 0 ],
         "min" : [ 0, -0.9980080127716064 ],
         "name" : "buffer-0-group-3-mesh-0-texcoord",
         "type" : "VEC2"
      },
      {
         "bufferView" : 0,
         "byteOffset" : 84684,
         "componentType" : 5123,
         "count" : 6,
         "max" : [ 3 ],
         "min" : [ 0 ],
         "name" : "buffer-0-group-4-mesh-0-indices",
         "type" : "SCALAR"
      },
      {
         "bufferView" : 2,
         "byteOffset" : 220176,
         "componentType" : 5126,
         "count" : 4,
         "max" : [ 134.3997802734375, 253.5464630126953, 0 ],
         "min" : [ 0, 0, -426.0184326171875 ],
         "name" : "buffer-0-group-4-mesh-0-position",
         "type" : "VEC3"
      },
      {
         "bufferView" : 2,
         "byteOffset" : 220224,
         "componentType" : 5126,
         "count" : 4,
         "max" : [ 0, 1, 0 ],
         "min" : [ 0, 0, 0 ],
         "name" : "buffer-0-group-4-mesh-0-normal",
         "type" : "VEC3"
      },
      {
         "bufferView" : 1,
         "byteOffset" : 73392,
         "componentType" : 5126,
         "count" : 4,
         "max" : [ 0.8284310102462769, 0 ],
         "min" : [ 0, -0.5504069924354553 ],
         "name" : "buffer-0-group-4-mesh-0-texcoord",
         "type" : "VEC2"
      },
      {
         "bufferView" : 0,
         "byteOffset" : 84696,
         "componentType" : 5123,
         "count" : 6,
         "max" : [ 3 ],
         "min" : [ 0 ],
         "name" : "buffer-0-group-5-mesh-0-indices",
         "type" : "SCALAR"
      },
      {
         "bufferView" : 2,
         "byteOffset" : 220272,
         "componentType" : 5126,
         "count" : 4,
         "max" : [ 778.5045776367188, 1.499999962106813e-05, 1147.681274414062 ],
         "min" : [ -699.0751342773438, 0, -1057.486938476562 ],
         "name" : "buffer-0-group-5-mesh-0-position",
         "type" : "VEC3"
      },
      {
         "bufferView" : 2,
         "byteOffset" : 220320,
         "componentType" : 5126,
         "count" : 4,
         "max" : [ 0, 1, 0 ],
         "min" : [ 0, 0, 0 ],
         "name" : "buffer-0-group-5-mesh-0-normal",
         "type" : "VEC3"
      },
      {
         "bufferView" : 1,
         "byteOffset" : 73424,
         "componentType" : 5126,
         "count" : 4,
         "max" : [ 0.4126720130443573, 0 ],
         "min" : [ 0, -0.6150180101394653 ],
         "name" : "buffer-0-group-5-mesh-0-texcoord",
         "type" : "VEC2"
      },
      {
         "bufferView" : 0,
         "byteOffset" : 84708,
         "componentType" : 5123,
         "count" : 6,
         "max" : [ 3 ],
         "min" : [ 0 ],
         "name" : "buffer-0-group-6-mesh-0-indices",
         "type" : "SCALAR"
      },
      {
         "bufferView" : 2,
         "byteOffset" : 220368,
         "componentType" : 5126,
         "count" : 4,
         "max" : [ 591.4937744140625, 243.8400115966797, 738.65087890625 ],
         "min" : [ 0, 0, 0 ],
         "name" : "buffer-0-group-6-mesh-0-position",
         "type" : "VEC3"
      },
      {
         "bufferView" : 2,
         "byteOffset" : 220416,
         "componentType" : 5126,
         "count" : 4,
         "max" : [ 0, 0, 0 ],
         "min" : [ -1, 0, 0 ],
         "name" : "buffer-0-group-6-mesh-0-normal",
         "type" : "VEC3"
      },
      {
         "bufferView" : 1,
         "byteOffset" : 73456,
         "componentType" : 5126,
         "count" : 4,
         "max" : [ 0.6367419958114624, 0 ],
         "min" : [ 0, -0.2591040134429932 ],
         "name" : "buffer-0-group-6-mesh-0-texcoord",
         "type" : "VEC2"
      },
      {
         "bufferView" : 0,
         "byteOffset" : 84720,
         "componentType" : 5123,
         "count" : 6,
         "max" : [ 3 ],
         "min" : [ 0 ],
         "name" : "buffer-0-group-7-mesh-0-indices",
         "type" : "SCALAR"
      },
      {
         "bufferView" : 2,
         "byteOffset" : 220464,
         "componentType" : 5126,
         "count" : 4,
         "max" : [ 0, 243.8400115966797, 102.8571166992188 ],
         "min" : [ -589.2886962890625, 0, -109.0741577148438 ],
         "name" : "buffer-0-group-7-mesh-0-position",
         "type" : "VEC3"
      },
      {
         "bufferView" : 2,
         "byteOffset" : 220512,
         "componentType" : 5126,
         "count" : 4,
         "max" : [ 1, 0, 0 ],
         "min" : [ 0, 0, 0 ],
         "name" : "buffer-0-group-7-mesh-0-normal",
         "type" : "VEC3"
      },
      {
         "bufferView" : 1,
         "byteOffset" : 73488,
         "componentType" : 5126,
         "count" : 4,
         "max" : [ 0.487076997756958, 0 ],
         "min" : [ 0, -0.2376559972763062 ],
         "name" : "buffer-0-group-7-mesh-0-texcoord",
         "type" : "VEC2"
      },
      {
         "bufferView" : 0,
         "byteOffset" : 84732,
         "componentType" : 5123,
         "count" : 12,
         "max" : [ 7 ],
         "min" : [ 0 ],
         "name" : "buffer-0-group-8-mesh-0-indices",
         "type" : "SCALAR"
      },
      {
         "bufferView" : 2,
         "byteOffset" : 220560,
         "componentType" : 5126,
         "count" : 8,
         "max" : [ 0, 209.6293792724609, 163.8965454101562 ],
         "min" : [ -222.8937072753906, 0, -6.283446788787842 ],
         "name" : "buffer-0-group-8-mesh-0-position",
         "type" : "VEC3"
      },
      {
         "bufferView" : 2,
         "byteOffset" : 220656,
         "componentType" : 5126,
         "count" : 8,
         "max" : [ 0, 0, 0 ],
         "min" : [ -1, -1, 0 ],
         "name" : "buffer-0-group-8-mesh-0-normal",
         "type" : "VEC3"
      },
      {
         "bufferView" : 1,
         "byteOffset" : 73520,
         "componentType" : 5126,
         "count" : 8,
         "max" : [ 0.5661510229110718, 0 ],
         "min" : [ 0, -0.5854039788246155 ],
         "name" : "buffer-0-group-8-mesh-0-texcoord",
         "type" : "VEC2"
      },
      {
         "bufferView" : 0,
         "byteOffset" : 84756,
         "componentType" : 5123,
         "count" : 12,
         "max" : [ 5 ],
         "min" : [ 0 ],
         "name" : "buffer-0-group-9-mesh-0-indices",
         "type" : "SCALAR"
      },
      {
         "bufferView" : 2,
         "byteOffset" : 220752,
         "componentType" : 5126,
         "count" : 6,
         "max" : [ 137.4688110351562, 243.8400115966797, 56.13910675048828 ],
         "min" : [ 0, 0, 0 ],
         "name" : "buffer-0-group-9-mesh-0-position",
         "type" : "VEC3"
      },
      {
         "bufferView" : 2,
         "byteOffset" : 220824,
         "componentType" : 5126,
         "count" : 6,
         "max" : [ 0, 0, 0 ],
         "min" : [ -0.997859001159668, 0, -0.06540299952030182 ],
         "name" : "buffer-0-group-9-mesh-0-normal",
         "type" : "VEC3"
      },
      {
         "bufferView" : 1,
         "byteOffset" : 73584,
         "componentType" : 5126,
         "count" : 6,
         "max" : [ 0.213686004281044, 0 ],
         "min" : [ 0, -0.8486340045928955 ],
         "name" : "buffer-0-group-9-mesh-0-texcoord",
         "type" : "VEC2"
      },
      {
         "bufferView" : 0,
         "byteOffset" : 84780,
         "componentType" : 5123,
         "count" : 7875,
         "max" : [ 3325 ],
         "min" : [ 0 ],
         "name" : "buffer-0-group-10-mesh-0-indices",
         "type" : "SCALAR"
      },
      {
         "bufferView" : 2,
         "byteOffset" : 220896,
         "componentType" : 5126,
         "count" : 3326,
         "max" : [ 591.4937744140625, 273.0499877929688, 738.65087890625 ],
         "min" : [ -589.2886962890625, -273.0499877929688, -814.400390625 ],
         "name" : "buffer-0-group-10-mesh-0-position",
         "type" : "VEC3"
      },
      {
         "bufferView" : 2,
         "byteOffset" : 260808,
         "componentType" : 5126,
         "count" : 3326,
         "max" : [ 1, 1, 1 ],
         "min" : [ -1, -1, -1 ],
         "name" : "buffer-0-group-10-mesh-0-normal",
         "type" : "VEC3"
      },
      {
         "bufferView" : 1,
         "byteOffset" : 73632,
         "componentType" : 5126,
         "count" : 3326,
         "max" : [ 0.9579949975013733, 0 ],
         "min" : [ 0, -0.9924290180206299 ],
         "name" : "buffer-0-group-10-mesh-0-texcoord",
         "type" : "VEC2"
      },
      {
         "bufferView" : 0,
         "byteOffset" : 100530,
         "componentType" : 5123,
         "count" : 84,
         "max" : [ 19 ],
         "min" : [ 0 ],
         "name" : "buffer-0-group-11-mesh-0-indices",
         "type" : "SCALAR"
      },
      {
         "bufferView" : 2,
         "byteOffset" : 300720,
         "componentType" : 5126,
         "count" : 20,
         "max" : [ 20.6287841796875, 209.6293792724609, 0 ],
         "min" : [ -206.0661926269531, 0, -616.5184326171875 ],
         "name" : "buffer-0-group-11-mesh-0-position",
         "type" : "VEC3"
      },
      {
         "bufferView" : 2,
         "byteOffset" : 300960,
         "componentType" : 5126,
         "count" : 20,
         "max" : [ 4.999999873689376e-06, 0, 1 ],
         "min" : [ -7.999999979801942e-06, 0, 0 ],
         "name" : "buffer-0-group-11-mesh-0-normal",
         "type" : "VEC3"
      },
      {
         "bufferView" : 1,
         "byteOffset" : 100240,
         "componentType" : 5126,
         "count" : 20,
         "max" : [ 0.4328640103340149, 0 ],
         "min" : [ 0, -0.8470389842987061 ],
         "name" : "buffer-0-group-11-mesh-0-texcoord",
         "type" : "VEC2"
      }
   ],
   "asset" : {
      "generator" : "Obj2GltfConverter",
      "version" : "2.0"
   },
   "bufferViews" : [
      {
         "buffer" : 0,
         "byteLength" : 100698,
         "byteOffset" : 0,
         "name" : "buffer-0-bufferview-ushort",
         "target" : 34963
      },
      {
         "buffer" : 0,
         "byteLength" : 100400,
         "byteOffset" : 100704,
         "byteStride" : 8,
         "name" : "buffer-0-bufferview-vec2",
         "target" : 34962
      },
      {
         "buffer" : 0,
         "byteLength" : 301200,
         "byteOffset" : 201108,
         "byteStride" : 12,
         "name" : "buffer-0-bufferview-vec3",
         "target" : 34962
      },
      {
         "buffer" : 0,
         "byteLength" : 1,
         "byteOffset" : 0,
         "name" : "buffer-0-bufferview-vec4"
      }
   ],
   "buffers" : [
      {
         "byteLength" : 502308,
         "name" : "buffer-0",
         "uri" : "FULL_HOUSE_wip_06X.bin"
      }
   ],
   "images" : [
      {
         "mimeType" : "image/png",
         "name" : "baked_lambert4SG_polySurface114SG-diffuse-image",
         "uri" : "SecondFLR.png"
      },
      {
         "mimeType" : "image/png",
         "name" : "baked_lambert2SG_group3SG-diffuse-image",
         "uri" : "occulsion.png"
      }
   ],
   "materials" : [
      {
         "alphaMode" : "OPAQUE",
         "doubleSided" : true,
         "name" : "initialShadingGroup",
         "pbrMetallicRoughness" : {
            "baseColorFactor" : [ 0.5, 0.5, 0.5, 1 ],
            "metallicFactor" : 0,
            "roughnessFactor" : 0.9699476628648295
         }
      },
      {
         "alphaMode" : "BLEND",
         "doubleSided" : true,
         "name" : "baked_lambert4SG_polySurface114SG",
         "pbrMetallicRoughness" : {
            "baseColorFactor" : [ 1, 1, 1, 0.6 ],
            "baseColorTexture" : {
               "index" : 0,
               "texCoord" : 0
            },
            "metallicFactor" : 0,
            "roughnessFactor" : 0.7358395138449315
         }
      },
      {
         "alphaMode" : "OPAQUE",
         "doubleSided" : true,
         "name" : "blinn2SG",
         "pbrMetallicRoughness" : {
            "baseColorFactor" : [ 0.6, 0.14, 0, 1 ],
            "metallicFactor" : 0,
            "roughnessFactor" : 0.9699476628648295
         }
      },
      {
         "alphaMode" : "OPAQUE",
         "doubleSided" : true,
         "name" : "lambert2SG",
         "pbrMetallicRoughness" : {
            "baseColorFactor" : [ 0.17, 0.17, 0.17, 1 ],
            "metallicFactor" : 0,
            "roughnessFactor" : 0.9699476628648295
         }
      },
      {
         "alphaMode" : "BLEND",
         "doubleSided" : true,
         "name" : "baked_lambert2SG_group3SG",
         "pbrMetallicRoughness" : {
            "baseColorFactor" : [ 1, 1, 1, 0.6 ],
            "baseColorTexture" : {
               "index" : 1,
               "texCoord" : 0
            },
            "metallicFactor" : 0,
            "roughnessFactor" : 0.7358395138449315
         }
      }
   ],
   "meshes" : [
      {
         "name" : "buffer-0-mesh-0",
         "primitives" : [
            {
               "attributes" : {
                  "NORMAL" : 2,
                  "POSITION" : 1,
                  "TEXCOORD_0" : 3
               },
               "indices" : 0,
               "material" : 0,
               "mode" : 4
            },
            {
               "attributes" : {
                  "NORMAL" : 6,
                  "POSITION" : 5,
                  "TEXCOORD_0" : 7
               },
               "indices" : 4,
               "material" : 2,
               "mode" : 4
            },
            {
               "attributes" : {
                  "NORMAL" : 10,
                  "POSITION" : 9,
                  "TEXCOORD_0" : 11
               },
               "indices" : 8,
               "material" : 3,
               "mode" : 4
            },
            {
               "attributes" : {
                  "NORMAL" : 14,
                  "POSITION" : 13,
                  "TEXCOORD_0" : 15
               },
               "indices" : 12,
               "material" : 1,
               "mode" : 4
            },
            {
               "attributes" : {
                  "NORMAL" : 18,
                  "POSITION" : 17,
                  "TEXCOORD_0" : 19
               },
               "indices" : 16,
               "material" : 4,
               "mode" : 4
            },
            {
               "attributes" : {
                  "NORMAL" : 22,
                  "POSITION" : 21,
                  "TEXCOORD_0" : 23
               },
               "indices" : 20,
               "material" : 4,
               "mode" : 4
            },
            {
               "attributes" : {
                  "NORMAL" : 26,
                  "POSITION" : 25,
                  "TEXCOORD_0" : 27
               },
               "indices" : 24,
               "material" : 4,
               "mode" : 4
            },
            {
               "attributes" : {
                  "NORMAL" : 30,
                  "POSITION" : 29,
                  "TEXCOORD_0" : 31
               },
               "indices" : 28,
               "material" : 4,
               "mode" : 4
            },
            {
               "attributes" : {
                  "NORMAL" : 34,
                  "POSITION" : 33,
                  "TEXCOORD_0" : 35
               },
               "indices" : 32,
               "material" : 4,
               "mode" : 4
            },
            {
               "attributes" : {
                  "NORMAL" : 38,
                  "POSITION" : 37,
                  "TEXCOORD_0" : 39
               },
               "indices" : 36,
               "material" : 4,
               "mode" : 4
            },
            {
               "attributes" : {
                  "NORMAL" : 42,
                  "POSITION" : 41,
                  "TEXCOORD_0" : 43
               },
               "indices" : 40,
               "material" : 4,
               "mode" : 4
            },
            {
               "attributes" : {
                  "NORMAL" : 46,
                  "POSITION" : 45,
                  "TEXCOORD_0" : 47
               },
               "indices" : 44,
               "material" : 4,
               "mode" : 4
            }
         ]
      }
   ],
   "nodes" : [
      {
         "mesh" : 0,
         "name" : "node-0"
      }
   ],
   "samplers" : [
      {
         "name" : "baked_lambert4SG_polySurface114SG-diffuse-sampler",
         "wrapS" : 10497,
         "wrapT" : 10497
      },
      {
         "name" : "baked_lambert2SG_group3SG-diffuse-sampler",
         "wrapS" : 10497,
         "wrapT" : 10497
      }
   ],
   "scenes" : [
      {
         "name" : "scene-0",
         "nodes" : [ 0 ]
      }
   ],
   "textures" : [
      {
         "name" : "baked_lambert4SG_polySurface114SG-diffuse-texture",
         "sampler" : 0,
         "source" : 0
      },
      {
         "name" : "baked_lambert2SG_group3SG-diffuse-texture",
         "sampler" : 1,
         "source" : 1
      }
   ]
}
